<svg width="74" height="36" viewBox="0 0 74 36" fill="none" xmlns="http://www.w3.org/2000/svg">
<path d="M0 0H8.592V11.225C8.592 12.516 8.492 13.41 8.492 13.41H8.592C9.41924 12.1053 10.5759 11.0419 11.9454 10.3269C13.3148 9.61202 14.8486 9.2709 16.392 9.338C21.556 9.338 25.579 11.721 25.579 18.923V35.511H16.985V20.511C16.985 18.127 16.042 17.133 14.154 17.133C13.0022 17.1008 11.8728 17.455 10.9457 18.1392C10.0185 18.8233 9.34698 19.798 9.038 20.908C8.70589 21.9678 8.55478 23.076 8.591 24.186V35.511H0V0Z" fill="#F1511B"/>
<path d="M30.438 28.374L27.838 23.874L30.438 19.374H35.638L38.238 23.874L35.638 28.374H30.438Z" fill="#EB3340"/>
<path d="M47.521 8.543C47.521 7.843 47.079 7.451 46.304 7.451H43.926V0H53.383C56.205 0 57.422 1.093 57.422 3.626V26.969C57.422 27.669 57.865 28.062 58.639 28.062H63.839C64.614 28.062 65.056 27.662 65.056 26.969V25.032H73.907V31.886C73.907 34.419 72.69 35.511 69.869 35.511H51.559C48.739 35.511 47.521 34.418 47.521 31.886V8.543Z" fill="#EB3340"/>
</svg>
