<svg width="197" height="37" viewBox="0 0 197 37" fill="none" xmlns="http://www.w3.org/2000/svg">
<path d="M0 0.606934H8.592V11.8319C8.592 13.1229 8.492 14.0169 8.492 14.0169H8.592C9.41924 12.7122 10.5759 11.6488 11.9454 10.9339C13.3148 10.219 14.8486 9.87784 16.392 9.94493C21.556 9.94493 25.579 12.3279 25.579 19.5299V36.1179H16.985V21.1179C16.985 18.7339 16.042 17.7399 14.154 17.7399C13.0022 17.7078 11.8728 18.062 10.9457 18.7461C10.0185 19.4302 9.34698 20.4049 9.038 21.5149C8.70589 22.5747 8.55478 23.6829 8.591 24.7929V36.1179H0V0.606934Z" fill="#F1511B"/>
<path d="M40.17 20.189C40.1949 19.7442 40.1304 19.2988 39.9803 18.8794C39.8302 18.4599 39.5975 18.0747 39.296 17.7467C38.9945 17.4186 38.6304 17.1543 38.225 16.9694C37.8197 16.7845 37.3813 16.6827 36.936 16.67C34.559 16.67 33.418 18.381 32.99 20.189H40.17ZM37.127 10.489C44.355 10.489 48.444 15.529 48.444 22.329C48.444 23.138 48.254 24.897 48.254 24.897H32.801C33.0624 26.1927 33.7843 27.3498 34.8332 28.1542C35.8821 28.9585 37.1868 29.3557 38.506 29.272C40.9467 29.1075 43.2896 28.2491 45.259 26.798L48.302 32.552C45.3271 34.9052 41.6338 36.1642 37.841 36.118C29.092 36.118 24.384 29.793 24.384 23.28C24.384 16.1 29.235 10.489 37.127 10.489Z" fill="#F1511B"/>
<path d="M53.412 23.454L45.167 10.54H54.852L57.633 16.252C57.981 16.897 58.428 17.941 58.428 17.941H58.528C58.528 17.941 59.028 16.898 59.323 16.252L62.104 10.54H71.784L63.589 23.454L71.635 36.123H62.199L59.119 30.362C58.871 29.916 58.519 29.071 58.519 29.071H58.419C58.419 29.071 58.071 29.916 57.819 30.362L54.798 36.123H45.362L53.412 23.454Z" fill="#F1511B"/>
<path d="M81.434 29.525C83.669 29.525 85.655 27.091 85.655 25.006V24.459H84.861C82.129 24.459 79 25.259 79 27.39C79 28.582 79.746 29.526 81.434 29.526V29.525ZM85.209 19.544H85.557V19.097C85.557 16.961 83.918 16.266 81.782 16.266C78.554 16.266 74.882 18.7 74.882 18.7L71.902 12.641C75.0687 10.495 78.8007 9.33619 82.626 9.31104C89.826 9.31104 94.148 13.234 94.148 19.741V35.485H86.301V33.945C86.3029 33.4139 86.3363 32.8833 86.401 32.356H86.301C86.301 32.356 84.414 36.081 79.05 36.081C74.282 36.081 70.359 32.902 70.359 27.836C70.359 20.387 81.235 19.542 85.209 19.542" fill="#F1511B"/>
<path d="M102.438 28.374L99.838 23.874L102.438 19.374H107.638L110.238 23.874L107.638 28.374H102.438Z" fill="#EB3340"/>
<path d="M119.521 8.543C119.521 7.843 119.079 7.451 118.304 7.451H115.926V0H125.383C128.205 0 129.422 1.093 129.422 3.626V26.969C129.422 27.669 129.865 28.062 130.639 28.062H135.839C136.614 28.062 137.056 27.662 137.056 26.969V25.032H145.907V31.886C145.907 34.419 144.69 35.511 141.869 35.511H123.559C120.739 35.511 119.521 34.418 119.521 31.886V8.543Z" fill="#EB3340"/>
<path d="M160.537 20.861L158.749 14.951C158.049 12.716 157.309 9.09 157.309 9.09H157.209C157.209 9.09 156.463 12.716 155.768 14.951L153.981 20.861H160.537ZM140.671 28.061H141.614C142.408 28.061 142.657 27.813 142.955 26.969L152.637 0H161.874L171.559 26.971C171.859 27.815 172.105 28.063 172.9 28.063H173.844V35.513H168.137C165.654 35.513 164.661 34.768 163.965 32.633L162.425 28.063H152.09L150.551 32.633C149.851 34.768 148.862 35.513 146.379 35.513H140.668L140.671 28.061Z" fill="#EB3340"/>
<path d="M181.01 28.062H184.189C184.674 28.0804 185.158 27.9951 185.607 27.8116C186.057 27.6282 186.462 27.3509 186.796 26.9983C187.13 26.6457 187.384 26.2258 187.543 25.7669C187.701 25.3079 187.76 24.8204 187.715 24.337C187.763 23.8618 187.708 23.3819 187.552 22.9303C187.397 22.4787 187.145 22.0662 186.815 21.7214C186.484 21.3765 186.083 21.1075 185.638 20.9329C185.194 20.7583 184.717 20.6822 184.24 20.71H179.919V26.968C179.904 27.1152 179.921 27.2641 179.971 27.4037C180.02 27.5432 180.1 27.67 180.205 27.7746C180.31 27.8793 180.437 27.9592 180.576 28.0086C180.716 28.058 180.865 28.0755 181.012 28.06L181.01 28.062ZM183.446 13.76C183.868 13.7689 184.287 13.6881 184.675 13.5231C185.063 13.3581 185.412 13.1126 185.698 12.8027C185.985 12.4929 186.202 12.1258 186.336 11.7257C186.47 11.3256 186.517 10.9017 186.475 10.482C186.503 10.0639 186.439 9.64484 186.287 9.25438C186.135 8.86393 185.899 8.51169 185.596 8.22263C185.293 7.93357 184.929 7.71477 184.532 7.58176C184.135 7.44874 183.713 7.40477 183.297 7.45295H179.919V13.76H183.446ZM171.029 7.45295H167.801V0.00195312H183.34C190.44 0.00195312 195.409 3.18096 195.409 9.28896C195.454 10.7994 195.096 12.2946 194.372 13.621C193.648 14.9474 192.584 16.0574 191.29 16.837V16.937C195.363 18.178 196.853 21.804 196.853 24.937C196.853 32.681 190.397 35.51 183.34 35.51H174.649C172.116 35.51 171.023 34.417 171.023 31.885L171.029 7.45295Z" fill="#EB3340"/>
</svg>
